<svg width="42" height="49" viewBox="0 0 42 49" fill="none" xmlns="http://www.w3.org/2000/svg">
<path d="M20.8145 21.7778C23.1669 21.7778 25.4665 21.1392 27.4225 19.9427C29.3785 18.7462 30.9029 17.0456 31.8032 15.0559C32.7034 13.0662 32.9389 10.8768 32.48 8.76458C32.0211 6.65234 30.8883 4.71212 29.2249 3.18929C27.5615 1.66645 25.4422 0.629382 23.1349 0.209232C20.8277 -0.210918 18.4362 0.00471795 16.2629 0.828872C14.0895 1.65303 12.2319 3.04868 10.925 4.83935C9.61809 6.63002 8.92051 8.73527 8.92051 10.8889C8.92051 13.7768 10.1736 16.5464 12.4042 18.5885C14.6348 20.6306 17.66 21.7778 20.8145 21.7778ZM38.6556 49C39.4442 49 40.2005 48.7132 40.7581 48.2027C41.3158 47.6922 41.6291 46.9998 41.6291 46.2778C41.6291 41.2239 39.4361 36.3771 35.5326 32.8035C31.6291 29.2299 26.3349 27.2222 20.8145 27.2222C15.2942 27.2222 9.99992 29.2299 6.09643 32.8035C2.19295 36.3771 8.22597e-08 41.2239 0 46.2778C0 46.9998 0.31328 47.6922 0.87092 48.2027C1.42856 48.7132 2.18488 49 2.9735 49H38.6556Z" fill="black"/>
</svg>
