<svg width="47" height="25" viewBox="0 0 47 25" fill="none" xmlns="http://www.w3.org/2000/svg">
<path d="M43.0496 0H13.4215C12.0586 0 10.992 0.486111 10.2809 1.22222L0.325909 11.7361C-0.108636 12.2083 -0.108636 12.8056 0.325909 13.2778L10.2809 23.7778C10.992 24.5 12.0586 25 13.4215 25H43.0496C45.2223 25 47 23.75 47 22.2222V2.77778C47 1.25 45.2223 0 43.0496 0ZM35.7413 18.4722C34.971 19.0139 33.7266 19.0139 32.9563 18.4722L27.248 14.4583L21.5396 18.4722C20.7693 19.0139 19.5249 19.0139 18.7546 18.4722C17.9842 17.9306 17.9842 17.0556 18.7546 16.5139L24.4629 12.5L18.7546 8.48611C17.9842 7.94444 17.9842 7.06944 18.7546 6.52778C19.5249 5.98611 20.7693 5.98611 21.5396 6.52778L27.248 10.5417L32.9563 6.52778C33.7266 5.98611 34.971 5.98611 35.7413 6.52778C36.5117 7.06944 36.5117 7.94444 35.7413 8.48611L30.033 12.5L35.7413 16.5139C36.4919 17.0417 36.4919 17.9306 35.7413 18.4722Z" fill="black"/>
</svg>
