<svg width="110" height="90" viewBox="0 0 110 90" fill="none" xmlns="http://www.w3.org/2000/svg">
<path d="M106.562 66.0938H3.4375V68.9062H106.562V66.0938Z" fill="#333333"/>
<path d="M97.9688 60.4688H101.406C102.318 60.4688 103.192 60.1724 103.837 59.645C104.482 59.1175 104.844 58.4022 104.844 57.6562V45L97.2812 29.5312L95.3906 25.6739C95.1357 25.1527 94.6961 24.7059 94.1282 24.3908C93.5603 24.0758 92.8902 23.9071 92.2041 23.9062H8.59375C7.68207 23.9062 6.80773 24.2026 6.16307 24.73C5.51841 25.2575 5.15625 25.9728 5.15625 26.7188V57.6562C5.15625 58.4022 5.51841 59.1175 6.16307 59.645C6.80773 60.1724 7.68207 60.4688 8.59375 60.4688H97.9688Z" fill="#F7E646"/>
<path d="M97.9688 57.6562H5.15625V40.7812C5.15625 36.3057 5.52112 32.0135 6.17058 28.8488C6.82005 25.6841 7.70092 23.9062 8.6194 23.9062H92.8537C93.5449 23.9111 94.22 24.9237 94.7921 26.8138C95.3643 28.704 95.8072 31.3851 96.064 34.5122L97.9688 57.6562Z" fill="#F7931E"/>
<path d="M104.589 45H84.2187C83.7629 45 83.3257 44.8518 83.0034 44.5881C82.6811 44.3244 82.5 43.9667 82.5 43.5938V29.5312H97.2812L104.749 44.8073C104.76 44.8287 104.763 44.8518 104.76 44.8746C104.757 44.8975 104.748 44.9193 104.732 44.9384C104.716 44.9574 104.695 44.9729 104.67 44.9837C104.645 44.9944 104.617 45 104.589 45ZM12.8906 35.1562H22.3437V46.4062H12.8906C12.6627 46.4062 12.4441 46.3322 12.283 46.2003C12.1218 46.0684 12.0312 45.8896 12.0312 45.7031V35.8594C12.0312 35.6729 12.1218 35.4941 12.283 35.3622C12.4441 35.2303 12.6627 35.1562 12.8906 35.1562Z" fill="#75D7F9"/>
<path d="M24.0625 47.8125H12.8906C12.2069 47.8125 11.5511 47.5903 11.0676 47.1947C10.5841 46.7991 10.3125 46.2626 10.3125 45.7031V35.8594C10.3125 35.2999 10.5841 34.7634 11.0676 34.3678C11.5511 33.9722 12.2069 33.75 12.8906 33.75H24.0625V47.8125ZM13.75 45H20.625V36.5625H13.75V45Z" fill="#F7E646"/>
<path d="M32.6562 35.1562H22.3438V46.4062H32.6562V35.1562Z" fill="#75D7F9"/>
<path d="M34.375 47.8125H20.625V33.75H34.375V47.8125ZM24.0625 45H30.9375V36.5625H24.0625V45Z" fill="#F7E646"/>
<path d="M42.9688 35.1562H32.6562V46.4062H42.9688V35.1562Z" fill="#75D7F9"/>
<path d="M44.6875 47.8125H30.9375V33.75H44.6875V47.8125ZM34.375 45H41.25V36.5625H34.375V45Z" fill="#F7E646"/>
<path d="M65.3125 35.1562H55V46.4062H65.3125V35.1562Z" fill="#75D7F9"/>
<path d="M67.0312 47.8125H53.2812V33.75H67.0312V47.8125ZM56.7188 45H63.5938V36.5625H56.7188V45Z" fill="#F7E646"/>
<path d="M65.3125 35.1562H74.7656C74.9935 35.1562 75.2121 35.2303 75.3733 35.3622C75.5345 35.4941 75.625 35.6729 75.625 35.8594V45.7031C75.625 45.8896 75.5345 46.0684 75.3733 46.2003C75.2121 46.3322 74.9935 46.4062 74.7656 46.4062H65.3125V35.1562Z" fill="#75D7F9"/>
<path d="M74.7656 47.8125H63.5938V33.75H74.7656C75.4494 33.75 76.1051 33.9722 76.5886 34.3678C77.0721 34.7634 77.3438 35.2999 77.3438 35.8594V45.7031C77.3438 46.2626 77.0721 46.7991 76.5886 47.1947C76.1051 47.5903 75.4494 47.8125 74.7656 47.8125ZM67.0312 45H73.9062V36.5625H67.0312V45Z" fill="#F7E646"/>
<path d="M20.625 67.5C25.3712 67.5 29.2188 64.352 29.2188 60.4688C29.2188 56.5855 25.3712 53.4375 20.625 53.4375C15.8788 53.4375 12.0312 56.5855 12.0312 60.4688C12.0312 64.352 15.8788 67.5 20.625 67.5Z" fill="#545656"/>
<path d="M20.625 61.875C21.5742 61.875 22.3438 61.2454 22.3438 60.4688C22.3438 59.6921 21.5742 59.0625 20.625 59.0625C19.6758 59.0625 18.9062 59.6921 18.9062 60.4688C18.9062 61.2454 19.6758 61.875 20.625 61.875Z" fill="#F2F2F2"/>
<path d="M20.625 63.2813C19.9451 63.2813 19.2805 63.1163 18.7152 62.8073C18.1499 62.4982 17.7093 62.059 17.4492 61.545C17.189 61.0311 17.1209 60.4656 17.2536 59.9201C17.3862 59.3745 17.7136 58.8733 18.1943 58.48C18.6751 58.0867 19.2876 57.8188 19.9544 57.7103C20.6212 57.6018 21.3124 57.6575 21.9405 57.8703C22.5686 58.0832 23.1055 58.4437 23.4832 58.9062C23.8609 59.3687 24.0625 59.9125 24.0625 60.4688C24.0625 61.2147 23.7003 61.93 23.0557 62.4575C22.411 62.9849 21.5367 63.2813 20.625 63.2813Z" fill="#F2F2F2"/>
<path d="M89.375 67.5C94.1212 67.5 97.9688 64.352 97.9688 60.4688C97.9688 56.5855 94.1212 53.4375 89.375 53.4375C84.6288 53.4375 80.7812 56.5855 80.7812 60.4688C80.7812 64.352 84.6288 67.5 89.375 67.5Z" fill="#545656"/>
<path d="M89.375 61.875C90.3242 61.875 91.0938 61.2454 91.0938 60.4688C91.0938 59.6921 90.3242 59.0625 89.375 59.0625C88.4258 59.0625 87.6562 59.6921 87.6562 60.4688C87.6562 61.2454 88.4258 61.875 89.375 61.875Z" fill="#F2F2F2"/>
<path d="M89.375 63.2813C88.6951 63.2813 88.0305 63.1163 87.4652 62.8073C86.8999 62.4982 86.4593 62.059 86.1992 61.545C85.939 61.0311 85.8709 60.4656 86.0036 59.9201C86.1362 59.3745 86.4636 58.8733 86.9443 58.48C87.4251 58.0867 88.0376 57.8188 88.7044 57.7103C89.3712 57.6018 90.0624 57.6575 90.6905 57.8703C91.3186 58.0832 91.8555 58.4437 92.2332 58.9062C92.6109 59.3687 92.8125 59.9125 92.8125 60.4688C92.8125 61.2147 92.4503 61.93 91.8057 62.4575C91.161 62.9849 90.2867 63.2813 89.375 63.2813Z" fill="#F2F2F2"/>
<path d="M104.844 49.2188H97.9688V52.0312H104.844V49.2188Z" fill="#F2F2F2"/>
<path d="M55 35.1562H42.9688V60.4688H55V35.1562Z" fill="#EFD30A"/>
<path d="M51.5625 46.4062H46.4062V49.2188H51.5625V46.4062Z" fill="#CCCCCC"/>
</svg>
